<?xml version="1.0" encoding="UTF-8"?>
<svg version="1.1" xmlns="http://www.w3.org/2000/svg" width="192" height="183">
<path d="M0 0 C1.7927677 -0.01234253 3.58550953 -0.02968037 5.37817383 -0.05255127 C20.48757665 -0.23337526 35.5445589 0.77884689 49.92248535 5.85617065 C50.65233643 6.10850464 51.3821875 6.36083862 52.13415527 6.62081909 C65.63830277 11.50082255 85.03483147 19.87019738 91.85998535 33.23117065 C92.79937217 36.15949593 93.48675739 39.13305248 94.17248535 42.12960815 C94.48723816 43.45776047 94.48723816 43.45776047 94.80834961 44.81274414 C95.50039541 47.74203098 96.18017316 50.67402274 96.85998535 53.60617065 C97.3468588 55.67731224 97.83450229 57.74827294 98.32287598 59.81906128 C99.59495938 65.22246104 100.85674809 70.62820702 102.11535645 76.03475952 C103.28652248 81.06213374 104.4640212 86.08802237 105.64123535 91.11398315 C107.00101255 96.9199711 108.35941175 102.72626263 109.71105957 108.53414917 C112.08431089 118.72133124 114.49483144 128.89821778 116.96154785 139.0632019 C117.47262204 141.1751795 117.98368983 143.28715865 118.49475098 145.3991394 C119.46262413 149.3970815 120.43914795 153.39277674 121.42053223 157.38742065 C121.86159641 159.20635618 122.30236718 161.02536288 122.74279785 162.8444519 C122.94329742 163.64969803 123.143797 164.45494415 123.35037231 165.28459167 C124.70152677 170.90839809 125.4121337 176.46691552 125.85998535 182.23117065 C121.11071784 180.9084117 117.90278473 179.03307213 114.04748535 175.98117065 C113.23138794 175.33667969 113.23138794 175.33667969 112.39880371 174.6791687 C110.5442653 173.20656118 108.70218847 171.71917462 106.85998535 170.23117065 C106.14681152 169.66156616 105.4336377 169.09196167 104.69885254 168.50509644 C102.43285186 166.69337635 100.17626235 164.87056815 97.92248535 163.04367065 C97.21309814 162.47422729 96.50371094 161.90478394 95.77282715 161.31808472 C93.757637 159.66667224 91.8002678 157.96973301 89.85998535 156.23117065 C89.31197266 155.7624353 88.76395996 155.29369995 88.19934082 154.8107605 C82.35707434 149.06539924 80.91132531 140.89056754 78.85998535 133.23117065 C78.5992926 132.26922791 78.33859985 131.30728516 78.07000732 130.31619263 C75.8879145 122.23820584 73.77713473 114.14211216 71.67248535 106.04367065 C70.34650262 100.95717226 69.01801051 95.87133363 67.68811035 90.78585815 C67.36153946 89.53620773 67.03496857 88.28655731 66.69850159 86.9990387 C64.73404315 79.50243615 62.72478643 72.02018241 60.65686035 64.55148315 C60.41856003 63.68752426 60.1802597 62.82356537 59.93473816 61.9334259 C58.85373706 58.01768897 57.76286371 54.10522087 56.6541748 50.19723511 C54.86054043 43.77531883 53.29912112 37.93565536 53.85998535 31.23117065 C52.58896973 31.29175659 51.3179541 31.35234253 50.00842285 31.4147644 C35.15065042 32.08224275 20.29113449 32.46685929 5.42248535 32.79367065 C4.44342224 32.81581635 3.46435913 32.83796204 2.45562744 32.86077881 C-7.42960907 33.08235835 -17.31467582 33.27224299 -27.20251465 33.3132019 C-27.92760727 33.31888687 -28.65269989 33.32457184 -29.39976501 33.33042908 C-36.43105557 33.33581247 -42.04939308 32.95175153 -47.4564209 28.19210815 C-52.93741969 22.34941909 -57.52681612 15.76479571 -62.14001465 9.23117065 C-62.70978027 8.52734253 -63.2795459 7.8235144 -63.86657715 7.09835815 C-65.14001465 5.23117065 -65.14001465 5.23117065 -65.14001465 2.23117065 C-43.46813079 0.54773705 -21.73142524 0.12964364 0 0 Z " fill="#464648" transform="translate(65.1400146484375,-0.231170654296875)"/>
<path d="M0 0 C9.53213071 1.9006941 17.99816124 4.99816124 25 12 C26.44466187 15.77029614 26.18999609 19.8546227 26.24609375 23.83984375 C26.2780744 25.45955729 26.31022733 27.07926744 26.3425293 28.69897461 C26.36565689 29.97972366 26.36565689 29.97972366 26.38925171 31.28634644 C26.60343555 43.05534901 26.87059524 54.81147149 27.578125 66.5625 C27.62812149 67.40075821 27.67811798 68.23901642 27.72962952 69.10267639 C27.97208464 73.0966281 28.23288125 77.08852341 28.51538086 81.07983398 C29.16893844 90.92617623 29.7000725 99.959913 23 108 C15.30821323 116.2376555 5.83160497 121.7942843 -3.73339844 127.5871582 C-6.53053794 129.33070046 -9.26430559 131.16190937 -12 133 C-12.65296988 113.77171146 -10.87571671 95.13039085 -8.5295105 76.09632111 C-8.05609339 72.22813013 -7.59964195 68.35794467 -7.14257812 64.48779297 C-6.59865135 59.88718441 -6.05425906 55.28664708 -5.50317383 50.68688965 C-4.06562795 38.67677132 -2.73793843 26.65741413 -1.5 14.625 C-1.33887088 13.06876589 -1.17773823 11.51253215 -1.01660156 9.95629883 C-0.67408961 6.63789889 -0.33538944 3.31912843 0 0 Z " fill="#464648" transform="translate(23,50)"/>
<path d="" fill="#404040" transform="translate(0,0)"/>
</svg>
